<?xml version="1.0" encoding="utf-8"?>
<!-- Generator: Adobe Illustrator 22.0.0, SVG Export Plug-In . SVG Version: 6.00 Build 0)  -->
<svg version="1.1" id="Layer_1" xmlns="http://www.w3.org/2000/svg" xmlns:xlink="http://www.w3.org/1999/xlink" x="0px" y="0px"
	 viewBox="0 0 1313.7 235" enable-background="new 0 0 1313.7 235" xml:space="preserve">
<path opacity="0.25" fill="#E6E0E0" d="M757.6,234c-54.7,0-104.5-34.9-104.5-105.2C653.4,47.9,718.8,0.5,785.2,0.5
	c61.9,0,96.9,41.2,96.9,88.9c0,47-35.3,85.8-81.6,85.8c-18.3,0-18.3-10.4-15.6-24.6l3.8-19.7l-0.7-0.3
	c-11.4,16.9-42.9,44.6-58.8,44.6c-8.3,0-16.6-9-16.6-29.1c0-19,7.6-45.7,28-65c15.2-14.5,33.9-25.3,55.3-25.6c0.4,0,0.8,0,1.2,0
	c4.9,0,12,1.8,16.1,2.5c4.8,1,8,1.7,11.8,1.7c-5.5,22.5-11.4,50.2-16.9,78.5c-3,17.7-1.8,22.5,6,22.5c0.3,0,0.6,0,0.9,0
	c23.2-0.7,50.5-24.6,50.5-71.3c0-47.7-34.6-75.4-82-75.4c-64.7,0-107.9,46.7-107.9,111.4c0,45.7,24.2,93.4,93,93.4
	c20.4,0,46-8,55.3-13.1l3.8,9.7C803.6,229.5,781.1,234,757.6,234 M781.8,69.3c-9.3,0-16.9,4.2-22.8,10.4
	c-9.7,11.1-19.7,35.6-20.1,58.1c0,12.5,3.1,15.2,7.3,15.2c6.2,0,24.9-12.8,45.3-41.5c3.8-11.4,6.9-28,9-38.4
	C796,71.1,788.4,69.3,781.8,69.3"/>
<path fill="#FFFFFF" d="M848.2,128.1c7.3-2,17.6-7,17.6-19.4c0-6-2.6-11.7-7.3-14.9c-4-2.9-9.8-4.4-19.6-4.4h-33.5V93
	c10.4,0.8,11,1.6,11,12.4V158c0,11-0.8,11.7-12,12.5v3.7h28.8c10.3,0,18.9-1.6,25.6-5.2c7.7-4.3,12.5-11,12.5-19.7
	c0-13-10.2-18.8-23.1-20.7V128.1L848.2,128.1z M827.3,126.9v-25.6c0-4.3,0.5-5.7,1.7-6.5c1.3-0.8,4.2-1.3,7.4-1.3
	c12.4,0,17.4,7.8,17.4,16.7c0,11-6,16.7-20.4,16.7H827.3L827.3,126.9z M827.3,131.2h6c15.9,0,25,5.9,25,19.3
	c0,13.6-9.5,19-20.2,19.2c-8.3,0-10.8-2.5-10.8-11.9V131.2L827.3,131.2z M967.9,171.8c-2.9-0.8-5.9-2.2-9.4-6.1
	c-3.1-3.4-5.9-6.8-10.6-13.6c-3.9-5.9-9.4-14.6-11.6-18.9c9.7-4.2,16.6-11.1,16.6-22.3c0-7.8-3.4-13.7-8.6-17.1
	c-5-3.3-11.3-4.4-20.9-4.4h-32.4V93c10.2,0.9,11.2,1.3,11.2,12.4v52.4c0,11.1-1.2,11.9-11.9,12.7v3.7h34.3v-3.7
	c-10.4-0.8-11.6-1.6-11.6-12.7v-20.7h4.2c6.8,0,9,1.6,11.2,5.2c3.9,6.4,8.6,14.5,13.2,20.9c5.9,8.5,11.3,11.4,21.1,11.9
	c1.6,0.1,3,0.1,4.6,0.1L967.9,171.8L967.9,171.8z M913.1,132.8v-32.1c0-3.5,0.5-5.1,1.4-5.7c1-0.8,3.3-1.3,7-1.3
	c9.9,0,19.2,5.2,19.2,19.3c0,7-2.1,12.3-7.2,16.2c-3.3,2.6-7.6,3.7-14.2,3.7H913.1L913.1,132.8z M1024.1,87.4
	c-27.4,0-43.8,21.8-43.8,45.3c0,25,18.8,43.4,42.4,43.4c23.9,0,43.6-17.2,43.6-45.4C1066.2,104.6,1046.3,87.4,1024.1,87.4
	L1024.1,87.4z M1021.5,92.1c17.1,0,31.4,14.6,31.4,42.1c0,25-13.1,37.2-27.5,37.2c-18.4,0-31.8-17.9-31.8-42.4
	C993.5,104.6,1006.9,92.1,1021.5,92.1L1021.5,92.1z M1201.7,89.4h-28.8V93c10.3,1.2,10.8,2.6,9,10.4c-2.1,9.3-9.3,34.8-14.7,52.2
	h-0.3c-8-22.4-15.5-43.6-22.8-65h-3.8c-6.7,21.3-14.2,42.8-21.1,65h-0.3c-5.7-18.5-10.8-36.1-15.9-53.7c-2-6.7-1.7-7.7,7.8-8.9v-3.7
	h-31.7V93c8,1,9.9,2.1,13.2,12.8c7.2,23.2,14.5,46.2,21.4,69.7h4.1c6.6-21,14-42,21.3-65h0.3c6.7,18.9,15.7,44.1,22.8,65h4.1
	c10.7-36.4,18.5-61.1,21.5-69.4c3.9-10.8,5.1-11.9,14.1-13V89.4L1201.7,89.4z M1313.4,89.4h-30.8V93c9,0.5,12.1,2.2,12.8,8.1
	c0.4,3.7,0.9,9.7,0.9,21.7v32.1h-0.4l-54.4-65.5h-19.3V93c6.1,0.5,9,1.6,11.6,4.8c2.3,3.1,2.6,3.7,2.6,13.2v28.7
	c0,12-0.4,18.3-0.8,22.3c-0.7,6.4-3.9,8.1-11.5,8.5v3.7h30.9v-3.7c-8.9-0.5-11.9-2.1-12.5-8.7c-0.4-3.8-0.8-10-0.8-22V107h0.3
	l55.6,68.4h4v-52.6c0-12.1,0.3-18,0.8-21.9c0.5-5.7,3.6-7.4,11-7.8V89.4L1313.4,89.4z"/>
<path fill="#D6CBCB" d="M15.6,145.2l12.2-0.8l18.9,31.1h18.9l-22.3-34.7c11.6-3.9,18.4-12.4,18.4-24.5c0-15.6-11.4-25.8-32.9-25.8
	c0.3,0-29.8,0-29.8,0v85h16.6V145.2L15.6,145.2z M15.5,132.2v-27.7c0,0,10.6,0,10.7,0c11.8,0,18.5,4.2,18.5,13.1
	c0,9.2-6.7,13.9-16.9,14.4L15.5,132.2L15.5,132.2z M88,147.3c0,0,40.9-0.5,41.1-0.5c0.8-2.7,1.4-7.1,1.4-10.5
	c0-15.4-9.2-25.4-25.8-25.4c-18.8,0-32.4,13.6-32.4,34c0,20,13.3,32.8,33.5,32.8c8.4,0,16.7-1.9,22.7-5.2l-2-13.3
	c-5.7,3.5-12.9,5.7-19.6,5.7c-11.2,0-18.1-6.9-18.8-17.1V147.3L88,147.3z M88.5,137.9c0.8-7.8,6.1-15,15-15c8.3,0,12,5.3,12,13.7
	c0,0.1,0,0.8,0,1.1L88.5,137.9L88.5,137.9z M190.7,157.3c0-12.2-9.4-16.9-21.3-19.7c-7.3-1.8-12.6-3.4-12.6-8.2
	c0-4.1,3.5-6.3,9.4-6.3c5.6,0,13.6,2,19.7,5.2l3.5-12.5c-5.8-3-15.1-5-22.8-5c-15.1,0-25,7.8-25,19.6s9.4,16.7,21.2,19.4
	c7.3,1.8,12.6,3.5,12.6,8.4c0,4.4-4.1,6.9-10.3,6.9c-6.9,0-15-2.3-21.2-5.8l-3.5,12.5c6.3,3.5,16.2,5.8,24.3,5.8
	C180.6,177.7,190.7,169,190.7,157.3L190.7,157.3z M216.2,147.3c0,0,40.9-0.5,41.1-0.5c0.8-2.7,1.4-7.1,1.4-10.5
	c0-15.4-9.2-25.4-25.8-25.4c-18.8,0-32.4,13.6-32.4,34c0,20,13.3,32.8,33.4,32.8c8.4,0,16.7-1.9,22.7-5.2l-2-13.3
	c-5.7,3.5-12.9,5.7-19.6,5.7c-11.2,0-18.1-6.9-18.8-17.1V147.3L216.2,147.3z M216.6,137.9c0.8-7.8,6.1-15,15-15
	c8.3,0,12,5.3,12,13.7c0,0.1,0,0.8,0,1.1L216.6,137.9L216.6,137.9z M306.3,168.4c2.3,6.3,7.9,9.9,19.9,8.6l1.2-12.1
	c-4.8-0.3-5.6-1-5.6-5.7v-22.4c0.4-17.3-7.1-25.8-26.4-25.8c-10.3,0-20.1,3.5-26.2,7.3l3.3,12.6c6.7-3.8,14.4-6.7,20.8-6.7
	c9,0,12.5,3.5,12.5,12v1.5c-28.7,1-37.1,10.7-37.1,22.3c0,9.9,8.2,17.7,19.4,17.7c7.8,0,13.2-3.8,17.7-9.2H306.3L306.3,168.4z
	 M305.8,160.5c-2.9,3.1-6.9,5.4-12,5.4c-5.7,0-9.4-3.4-9.4-8.2c0-6.7,5.7-9.8,21.3-11.7V160.5L305.8,160.5z M355.2,136.8
	c4.2-7.6,9.4-11.1,15-11.1c3,0,6,0.8,9,2.4l3.5-14.4c-3.4-2-7.3-2.9-11.1-2.9c-7.3,0-12.4,3.7-16.3,10.3V111l-16,2.3v62.3h16V136.8
	L355.2,136.8z M442.2,172.4l-2.6-13.1c-4.9,3.1-10.9,4.9-17.4,4.9c-10.6,0-17.8-7.5-17.8-20.3c0-12.1,6.3-20,17.8-20
	c5.8,0,11.8,1.8,17,5l3.4-12.9c-5.7-3.4-13.1-5.3-21.6-5.3c-19.7,0-33,13.2-33,33.6c0,20.5,12.1,33.2,32.5,33.2
	C428.9,177.6,436.7,175.7,442.2,172.4L442.2,172.4z M512.1,175.6v-43.1c0-13.5-7.5-21.6-19.6-21.6c-8.2,0-15.6,3.8-21.2,9.9
	c0-1,0-38.2,0-38.2l-16,2.2v90.8h16v-44.7c3.1-3,8.3-5.8,14.3-5.8c6.8,0,10.5,3.1,10.5,12.4v38.2H512.1L512.1,175.6z M541.1,147.3
	c0,0,40.9-0.5,41.1-0.5c0.8-2.7,1.4-7.1,1.4-10.5c0-15.4-9.2-25.4-25.8-25.4c-18.8,0-32.4,13.6-32.4,34c0,20,13.3,32.8,33.4,32.8
	c8.4,0,16.7-1.9,22.7-5.2l-2-13.3c-5.7,3.5-12.9,5.7-19.6,5.7c-11.1,0-18.1-6.9-18.8-17.1V147.3L541.1,147.3z M541.5,137.9
	c0.8-7.8,6.1-15,15-15c8.3,0,12,5.3,12,13.7c0,0.1,0,0.8,0,1.1L541.5,137.9L541.5,137.9z M613.5,136.8c4.2-7.6,9.4-11.1,15-11.1
	c3,0,6,0.8,9,2.4l3.5-14.4c-3.4-2-7.3-2.9-11.2-2.9c-7.3,0-12.4,3.7-16.3,10.3V111l-16,2.3v62.3h16V136.8L613.5,136.8z M697.2,157.3
	c0-12.2-9.4-16.9-21.3-19.7c-7.3-1.8-12.6-3.4-12.6-8.2c0-4.1,3.5-6.3,9.4-6.3c5.6,0,13.6,2,19.7,5.2l3.5-12.5c-5.8-3-15.1-5-22.8-5
	c-15.1,0-25,7.8-25,19.6s9.4,16.7,21.2,19.4c7.3,1.8,12.6,3.5,12.6,8.4c0,4.4-4.1,6.9-10.3,6.9c-6.9,0-15-2.3-21.2-5.8l-3.5,12.5
	c6.3,3.5,16.2,5.8,24.3,5.8C687.1,177.7,697.2,169,697.2,157.3L697.2,157.3z"/>
</svg>
