<?xml version="1.0" encoding="utf-8"?>
<!-- Generator: Adobe Illustrator 21.1.0, SVG Export Plug-In . SVG Version: 6.00 Build 0)  -->
<svg version="1.1" id="Layer_1" xmlns="http://www.w3.org/2000/svg" xmlns:xlink="http://www.w3.org/1999/xlink" x="0px" y="0px"
	 viewBox="0 0 1320 234" enable-background="new 0 0 1320 234" xml:space="preserve">
<path opacity="0.3333" fill="#E6E0E0" d="M763.5,233.5c-54.7,0-104.5-34.9-104.5-105.2C659.4,47.4,724.7,0,791.2,0
	C853.1,0,888,41.2,888,88.9c0,47-35.3,85.8-81.6,85.8c-18.3,0-18.3-10.4-15.6-24.6l3.8-19.7l-0.7-0.3
	c-11.4,16.9-42.9,44.6-58.8,44.6c-8.3,0-16.6-9-16.6-29.1c0-19,7.6-45.7,28-65c15.2-14.5,33.9-25.3,55.3-25.6c0.4,0,0.8,0,1.2,0
	c4.9,0,12,1.8,16.1,2.5c4.8,1,8,1.7,11.8,1.7c-5.5,22.5-11.4,50.2-16.9,78.5c-3,17.7-1.8,22.5,6,22.5c0.3,0,0.6,0,0.9,0
	c23.2-0.7,50.5-24.6,50.5-71.3c0-47.7-34.6-75.4-82-75.4c-64.7,0-107.9,46.7-107.9,111.4c0,45.7,24.2,93.4,93,93.4
	c20.4,0,46-8,55.3-13.1l3.8,9.7C809.5,229,787,233.5,763.5,233.5 M787.7,68.8c-9.3,0-16.9,4.2-22.8,10.4
	c-9.7,11.1-19.7,35.6-20.1,58.1c0,12.5,3.1,15.2,7.3,15.2c6.2,0,24.9-12.8,45.3-41.5c3.8-11.4,6.9-28,9-38.4
	C801.9,70.6,794.3,68.8,787.7,68.8"/>
<path fill="#D6CBCB" d="M66.8,151.9c-0.5-13.7-3.1-17-11.4-18.7v-0.2c8.5-1.7,12.4-5.3,12.4-20.2c0-12.5-1.6-16.5-4.9-19.8
	c-2.7-2.6-6.5-3.6-12.5-3.6H1v8.2h12v69.3H1v8.2h33.7v-8.2H22.2v-30.3H45c4.8,0,7.2,0.7,9.3,2.7c1.7,1.7,2.7,4.3,2.9,12.7
	c0.5,17.3,1.2,19.7,2.8,21.3c1.1,1.1,2.6,1.7,6.2,1.7h12.9v-8.3H67.6C67.4,163.5,67.1,159.9,66.8,151.9L66.8,151.9z M22.2,128.9
	V97.5h25.6c4.2,0,6.2,0.5,7.5,1.7c1.5,1.5,2.7,4.2,2.7,14c0,9.7-1.2,12.1-2.7,13.6c-1.2,1.2-3.2,2.1-7.6,2.1H22.2L22.2,128.9z
	 M141.3,145.5c1.1,0,1.5-0.5,1.5-1.5v-2.2c0-18.9-1.3-24.5-5.6-28.8c-2.6-2.6-6.6-3.6-13.2-3.6h-14.5c-6.7,0-10.5,0.9-13.4,3.7
	c-4.2,4.2-5.5,9.4-5.5,29c0,19.7,1.3,25,5.5,29.2c2.8,2.8,6.6,3.7,13.4,3.7h16.9c6.4,0,9.4-1,11.9-3.4c3.2-3.2,4.3-6.6,4.5-16.7
	h-8.7c-0.2,6.7-0.9,8.8-2.2,10.3c-1.5,1.3-3.1,2-7.2,2h-14.3c-4.7,0-6.4-0.4-7.8-2c-1.8-1.7-2.8-4.8-2.9-19.7H141.3L141.3,145.5z
	 M102.4,119.3c1.6-1.5,3.3-2,8-2h12.7c4.7,0,6.5,0.5,7.8,2c1.8,1.8,2.9,5.4,2.9,18.9H99.6C99.7,124.3,100.7,121.2,102.4,119.3
	L102.4,119.3z M157.7,127.5c0,8.5,0.9,11.6,3.3,14.1c1.8,1.8,4.5,2.7,10.5,3.3l18.9,2c4.2,0.5,5.4,1,6.2,1.8c1,1,1.6,2.7,1.6,8.3
	c0,6.2-0.7,7.8-1.8,8.9c-1,1-2.4,1.5-5.4,1.5h-18.4c-3.4,0-4.8-0.5-5.6-1.3c-1.2-1.2-1.6-2.9-1.8-10.9h-8.3c0.1,11.5,1,14.2,3.8,17
	c1.8,1.8,5.4,2.8,10.4,2.8h22.1c4.8,0,7.6-0.9,9.7-2.9c2.7-2.8,4-6.6,4-15.6c0-8.2-0.7-12-3.2-14.5c-1.7-1.7-4.5-2.6-10.4-3.2
	l-19.1-2.1c-4.3-0.4-5.4-0.9-6.5-1.8c-1-1.1-1.3-2.7-1.3-8c0-5.6,0.7-7.3,2-8.6c1-1,2.4-1.3,5.1-1.3h16.8c3.2,0,4.7,0.6,5.5,1.5
	c1.1,1.1,1.7,2.6,2,10.3h8.3c-0.1-10.9-1.2-14-3.8-16.5c-1.8-1.8-4.8-2.8-10-2.8h-20.7c-4.9,0-7.6,0.9-9.7,2.9
	C159,115.2,157.7,119.3,157.7,127.5L157.7,127.5z M271.7,145.5c1.1,0,1.5-0.5,1.5-1.5v-2.2c0-18.9-1.3-24.5-5.6-28.8
	c-2.6-2.6-6.6-3.6-13.2-3.6h-14.5c-6.7,0-10.5,0.9-13.4,3.7c-4.2,4.2-5.5,9.4-5.5,29c0,19.7,1.3,25,5.5,29.2
	c2.8,2.8,6.6,3.7,13.4,3.7h16.9c6.4,0,9.4-1,11.9-3.4c3.2-3.2,4.3-6.6,4.5-16.7h-8.7c-0.2,6.7-0.9,8.8-2.2,10.3
	c-1.5,1.3-3.1,2-7.2,2h-14.3c-4.7,0-6.4-0.4-7.8-2c-1.8-1.7-2.8-4.8-2.9-19.7H271.7L271.7,145.5z M232.8,119.3c1.6-1.5,3.3-2,8-2
	h12.7c4.7,0,6.5,0.5,7.8,2c1.8,1.8,2.9,5.4,2.9,18.9H230C230.1,124.3,231.1,121.2,232.8,119.3L232.8,119.3z M329,128.4V139
	c-6.5-1.1-13.4-1.5-19.2-1.5c-11.4,0-15.9,1.6-18.7,4.4c-2.6,2.6-4,7.2-4,15.1c0,8.3,1.6,12.1,3.9,14.5c2.7,2.7,6.4,3.7,12.2,3.7
	h7.7c6.5,0,9.7-1.6,18.1-8.5v8.3h19.4v-7.7h-10.5v-39.4c0-8.6-0.6-12.1-3.6-14.9c-2.2-2.3-5.1-3.4-12.2-3.4h-15.9
	c-6.1,0-9.3,0.9-12,3.6c-2.7,2.8-3.9,6.4-4.2,16h8.8c0.1-5.9,0.7-8.5,2.3-10c1.3-1.3,3.4-1.8,7.6-1.8h11.8c4.4,0,5.8,0.5,6.9,1.6
	C328.5,120.1,329,121.9,329,128.4L329,128.4z M312.2,167.5h-7.1c-3.8,0-5.8-0.5-7.2-1.8c-1.3-1.3-2-4-2-9.8c0-5.4,0.6-7.4,2.2-9.1
	c1.6-1.6,3.7-2.3,11.3-2.3H329v17.1C321.8,166.1,318.1,167.5,312.2,167.5L312.2,167.5z M378.4,167.3v-43c7-4.8,10.4-5.6,15.4-5.6
	h8.1v-9.3h-7.1c-5.5,0-8.5,2.4-16.4,10.8v-10.7h-19.6v7.8h10.8v50h-10.8v7.7h30.5v-7.7H378.4L378.4,167.3z M431.8,175.1h16.3
	c6.2,0,9.6-1.1,11.9-3.4c3.2-3.2,4.4-6.6,4.5-18.7h-8.7c-0.1,8.1-0.9,10.9-2.2,12.4c-1.5,1.3-3.4,1.8-7.5,1.8h-13.4
	c-4.7,0-6.5-0.5-8-2c-2-2-2.9-5.1-2.9-22.9c0-17.6,1-20.8,2.9-22.8c1.5-1.5,3.3-2,8-2H446c4.2,0,5.9,0.5,7.2,1.8
	c1.5,1.3,2.2,3.6,2.3,11.6h8.8c-0.2-11.1-1.5-14.9-4.5-18c-2.5-2.5-5.5-3.4-11.9-3.4h-16.2c-6.7,0-10.5,0.9-13.4,3.7
	c-4.2,4.2-5.5,9.4-5.5,29c0,19.7,1.3,25,5.5,29.2C421.3,174.2,425.1,175.1,431.8,175.1L431.8,175.1z M495.7,86.9h-19.6v7.8h10.8
	v72.6h-10.8v7.7h29.9v-7.7h-10.3v-44.1c6.9-4.4,10.7-5.9,16-5.9h6.7c4.8,0,6.1,0.5,7.5,1.8c1.5,1.5,2,3.4,2,7.2v40.9h-10.3v7.7h29.6
	v-7.7h-10.5v-41.4c0-7-1-10.5-3.4-13.1c-2.4-2.3-5.3-3.4-11.3-3.4h-7.7c-6.9,0-9.9,1.8-18.6,8.8V86.9L495.7,86.9z M608.8,145.5
	c1.1,0,1.5-0.5,1.5-1.5v-2.2c0-18.9-1.3-24.5-5.6-28.8c-2.6-2.6-6.6-3.6-13.2-3.6H577c-6.7,0-10.5,0.9-13.4,3.7
	c-4.2,4.2-5.5,9.4-5.5,29c0,19.7,1.3,25,5.5,29.2c2.8,2.8,6.6,3.7,13.4,3.7h16.9c6.4,0,9.4-1,11.9-3.4c3.2-3.2,4.3-6.6,4.5-16.7
	h-8.7c-0.2,6.7-0.9,8.8-2.2,10.3c-1.5,1.3-3.1,2-7.2,2h-14.3c-4.7,0-6.4-0.4-7.8-2c-1.8-1.7-2.8-4.8-2.9-19.7H608.8L608.8,145.5z
	 M569.9,119.3c1.6-1.5,3.3-2,8-2h12.7c4.7,0,6.5,0.5,7.8,2c1.8,1.8,2.9,5.4,2.9,18.9h-34.3C567.2,124.3,568.2,121.2,569.9,119.3
	L569.9,119.3z M642.2,167.3v-43c7-4.8,10.4-5.6,15.4-5.6h8.1v-9.3h-7.1c-5.5,0-8.5,2.4-16.4,10.8v-10.7h-19.6v7.8h10.8v50h-10.8v7.7
	h30.5v-7.7H642.2L642.2,167.3z M677.5,127.5c0,8.5,0.9,11.6,3.3,14.1c1.8,1.8,4.5,2.7,10.5,3.3l18.9,2c4.2,0.5,5.4,1,6.2,1.8
	c1,1,1.6,2.7,1.6,8.3c0,6.2-0.7,7.8-1.8,8.9c-1,1-2.4,1.5-5.4,1.5h-18.4c-3.4,0-4.8-0.5-5.6-1.3c-1.2-1.2-1.6-2.9-1.8-10.9h-8.3
	c0.1,11.5,1,14.2,3.8,17c1.8,1.8,5.4,2.8,10.4,2.8h22c4.8,0,7.6-0.9,9.7-2.9c2.7-2.8,4-6.6,4-15.6c0-8.2-0.7-12-3.2-14.5
	c-1.7-1.7-4.5-2.6-10.4-3.2l-19.1-2.1c-4.3-0.4-5.4-0.9-6.5-1.8c-1-1.1-1.3-2.7-1.3-8c0-5.6,0.7-7.3,2-8.6c1-1,2.5-1.3,5.1-1.3h16.8
	c3.2,0,4.7,0.6,5.5,1.5c1.1,1.1,1.7,2.6,2,10.3h8.3c-0.1-10.9-1.2-14-3.8-16.5c-1.8-1.8-4.8-2.8-10-2.8h-20.7
	c-4.9,0-7.6,0.9-9.7,2.9C678.8,115.2,677.5,119.3,677.5,127.5L677.5,127.5z"/>
<path fill="#FFFFFF" d="M854.1,127.6c7.3-2,17.6-7,17.6-19.4c0-6-2.6-11.7-7.3-14.9c-4-2.9-9.8-4.4-19.6-4.4h-33.5v3.7
	c10.4,0.8,11,1.6,11,12.4v52.6c0,11-0.8,11.7-12,12.5v3.7h28.8c10.3,0,18.9-1.6,25.6-5.2c7.7-4.3,12.5-11,12.5-19.7
	c0-13-10.2-18.8-23.1-20.7V127.6L854.1,127.6z M833.2,126.4v-25.6c0-4.3,0.5-5.7,1.7-6.5c1.3-0.8,4.2-1.3,7.4-1.3
	c12.4,0,17.4,7.8,17.4,16.7c0,11-6,16.7-20.4,16.7H833.2L833.2,126.4z M833.2,130.7h6c15.9,0,25,5.9,25,19.3
	c0,13.6-9.5,19-20.2,19.2c-8.3,0-10.8-2.5-10.8-11.9V130.7L833.2,130.7z M973.8,171.3c-2.9-0.8-5.9-2.2-9.4-6.1
	c-3.1-3.4-5.9-6.8-10.6-13.6c-3.9-5.9-9.4-14.6-11.6-18.9c9.7-4.2,16.6-11.1,16.6-22.3c0-7.8-3.4-13.7-8.6-17.1
	c-5-3.3-11.3-4.4-20.9-4.4H897v3.7c10.2,0.9,11.2,1.3,11.2,12.4v52.4c0,11.1-1.2,11.9-11.9,12.7v3.7h34.3V170
	c-10.4-0.8-11.6-1.6-11.6-12.7v-20.7h4.2c6.8,0,9,1.6,11.2,5.2c3.9,6.4,8.6,14.5,13.2,20.9c5.9,8.5,11.3,11.4,21.1,11.9
	c1.6,0.1,3,0.1,4.6,0.1L973.8,171.3L973.8,171.3z M919.1,132.3v-32.1c0-3.5,0.5-5.1,1.4-5.7c1-0.8,3.3-1.3,7-1.3
	c9.9,0,19.2,5.2,19.2,19.3c0,7-2.1,12.3-7.2,16.2c-3.3,2.6-7.6,3.7-14.2,3.7H919.1L919.1,132.3z M1030,86.9
	c-27.4,0-43.8,21.8-43.8,45.3c0,25,18.8,43.4,42.4,43.4c23.9,0,43.6-17.2,43.6-45.4C1072.1,104.1,1052.2,86.9,1030,86.9L1030,86.9z
	 M1027.4,91.6c17.1,0,31.4,14.6,31.4,42.1c0,25-13.1,37.2-27.5,37.2c-18.4,0-31.8-17.9-31.8-42.4
	C999.5,104.1,1012.8,91.6,1027.4,91.6L1027.4,91.6z M1207.6,88.9h-28.8v3.7c10.3,1.2,10.8,2.6,9,10.4c-2.1,9.3-9.3,34.8-14.7,52.2
	h-0.3c-8-22.4-15.5-43.6-22.8-65h-3.8c-6.7,21.3-14.2,42.8-21.1,65h-0.3c-5.7-18.5-10.8-36.1-15.9-53.7c-2-6.7-1.7-7.7,7.8-8.9v-3.7
	H1085v3.7c8,1,9.9,2.1,13.2,12.8c7.2,23.2,14.5,46.2,21.4,69.7h4.1c6.6-21,14-42,21.3-65h0.3c6.7,18.9,15.7,44.1,22.8,65h4.1
	c10.7-36.4,18.5-61.1,21.5-69.4c3.9-10.8,5.1-11.9,14.1-13V88.9L1207.6,88.9z M1319.3,88.9h-30.8v3.7c9,0.5,12.1,2.2,12.8,8.1
	c0.4,3.7,0.9,9.7,0.9,21.7v32.1h-0.4l-54.4-65.5h-19.3v3.7c6.1,0.5,9,1.6,11.6,4.8c2.3,3.1,2.6,3.7,2.6,13.2v28.7
	c0,12-0.4,18.3-0.8,22.3c-0.7,6.4-3.9,8.1-11.5,8.5v3.7h30.9V170c-8.9-0.5-11.9-2.1-12.5-8.7c-0.4-3.8-0.8-10-0.8-22v-32.7h0.3
	l55.6,68.4h4.1v-52.6c0-12.1,0.3-18,0.8-21.9c0.5-5.7,3.6-7.4,11-7.8V88.9L1319.3,88.9z"/>
</svg>
